<mxfile host="Electron" agent="Mozilla/5.0 (Windows NT 10.0; Win64; x64) AppleWebKit/537.36 (KHTML, like Gecko) draw.io/26.0.16 Chrome/132.0.6834.196 Electron/34.2.0 Safari/537.36" version="26.0.16">
  <diagram name="Page-1" id="2YBvvXClWsGukQMizWep">
    <mxGraphModel dx="1021" dy="485" grid="1" gridSize="10" guides="1" tooltips="1" connect="1" arrows="1" fold="1" page="1" pageScale="1" pageWidth="850" pageHeight="1100" math="0" shadow="0">
      <root>
        <mxCell id="0" />
        <mxCell id="1" parent="0" />
        <mxCell id="-iqEYMiti9KzejZX13pW-5" value="" style="shape=umlLifeline;perimeter=lifelinePerimeter;whiteSpace=wrap;html=1;container=1;dropTarget=0;collapsible=0;recursiveResize=0;outlineConnect=0;portConstraint=eastwest;newEdgeStyle={&quot;curved&quot;:0,&quot;rounded&quot;:0};participant=umlActor;size=60;" parent="1" vertex="1">
          <mxGeometry x="90" y="100" width="40" height="790" as="geometry" />
        </mxCell>
        <mxCell id="-iqEYMiti9KzejZX13pW-45" value="Xác nhận" style="html=1;verticalAlign=bottom;endArrow=block;curved=0;rounded=0;" parent="1" edge="1">
          <mxGeometry width="80" relative="1" as="geometry">
            <mxPoint x="110" y="370" as="sourcePoint" />
            <mxPoint x="260" y="370" as="targetPoint" />
            <Array as="points">
              <mxPoint x="165" y="370" />
            </Array>
          </mxGeometry>
        </mxCell>
        <mxCell id="-iqEYMiti9KzejZX13pW-47" value="Lấy thông tin vé" style="html=1;verticalAlign=bottom;endArrow=block;curved=0;rounded=0;" parent="1" target="kPx4DS-OzrlaK1hpZoPS-25" edge="1">
          <mxGeometry width="80" relative="1" as="geometry">
            <mxPoint x="430" y="239.5" as="sourcePoint" />
            <mxPoint x="600" y="240" as="targetPoint" />
            <Array as="points">
              <mxPoint x="455" y="239.5" />
            </Array>
            <mxPoint as="offset" />
          </mxGeometry>
        </mxCell>
        <mxCell id="-iqEYMiti9KzejZX13pW-50" value="Kiểm tra điều kiện hủy vé" style="html=1;verticalAlign=bottom;endArrow=block;curved=0;rounded=0;" parent="1" edge="1">
          <mxGeometry x="0.1429" y="60" width="80" relative="1" as="geometry">
            <mxPoint x="430" y="510" as="sourcePoint" />
            <mxPoint x="430" y="540" as="targetPoint" />
            <mxPoint as="offset" />
            <Array as="points">
              <mxPoint x="450" y="510" />
              <mxPoint x="450" y="540" />
            </Array>
          </mxGeometry>
        </mxCell>
        <mxCell id="-iqEYMiti9KzejZX13pW-51" value="Gửi id của vé" style="html=1;verticalAlign=bottom;endArrow=block;curved=0;rounded=0;" parent="1" source="kPx4DS-OzrlaK1hpZoPS-9" edge="1">
          <mxGeometry width="80" relative="1" as="geometry">
            <mxPoint x="266" y="219.99999999999997" as="sourcePoint" />
            <mxPoint x="420" y="220" as="targetPoint" />
            <Array as="points">
              <mxPoint x="340" y="220" />
            </Array>
          </mxGeometry>
        </mxCell>
        <mxCell id="-iqEYMiti9KzejZX13pW-56" value="Gửi xác nhận của người dùng" style="html=1;verticalAlign=bottom;endArrow=block;curved=0;rounded=0;" parent="1" edge="1">
          <mxGeometry width="80" relative="1" as="geometry">
            <mxPoint x="270.5" y="380" as="sourcePoint" />
            <mxPoint x="420" y="380" as="targetPoint" />
          </mxGeometry>
        </mxCell>
        <mxCell id="-iqEYMiti9KzejZX13pW-65" value="Trả thông tin vé" style="html=1;verticalAlign=bottom;endArrow=open;dashed=1;endSize=8;curved=0;rounded=0;" parent="1" target="kPx4DS-OzrlaK1hpZoPS-26" edge="1">
          <mxGeometry relative="1" as="geometry">
            <mxPoint x="589.5" y="280" as="sourcePoint" />
            <mxPoint x="425" y="280" as="targetPoint" />
            <Array as="points">
              <mxPoint x="490" y="280" />
            </Array>
          </mxGeometry>
        </mxCell>
        <mxCell id="-iqEYMiti9KzejZX13pW-70" value="Thông tin vé" style="html=1;verticalAlign=bottom;endArrow=open;dashed=1;endSize=8;curved=0;rounded=0;" parent="1" target="kPx4DS-OzrlaK1hpZoPS-20" edge="1">
          <mxGeometry relative="1" as="geometry">
            <mxPoint x="425" y="300" as="sourcePoint" />
            <mxPoint x="265" y="300" as="targetPoint" />
            <Array as="points" />
          </mxGeometry>
        </mxCell>
        <mxCell id="-iqEYMiti9KzejZX13pW-71" value="Khách hàng" style="text;html=1;align=center;verticalAlign=middle;resizable=0;points=[];autosize=1;strokeColor=none;fillColor=none;" parent="1" vertex="1">
          <mxGeometry x="65" y="70" width="90" height="30" as="geometry" />
        </mxCell>
        <mxCell id="kPx4DS-OzrlaK1hpZoPS-7" value="Chọn vé cần hủy" style="html=1;verticalAlign=bottom;startArrow=oval;startFill=1;endArrow=block;startSize=8;curved=0;rounded=0;entryX=0;entryY=0;entryDx=0;entryDy=0;entryPerimeter=0;" parent="1" source="-iqEYMiti9KzejZX13pW-5" target="kPx4DS-OzrlaK1hpZoPS-20" edge="1">
          <mxGeometry width="60" relative="1" as="geometry">
            <mxPoint x="120" y="200" as="sourcePoint" />
            <mxPoint x="265" y="200" as="targetPoint" />
            <Array as="points">
              <mxPoint x="250" y="200" />
            </Array>
            <mxPoint as="offset" />
          </mxGeometry>
        </mxCell>
        <mxCell id="kPx4DS-OzrlaK1hpZoPS-9" value=":WebBrowser" style="shape=umlLifeline;perimeter=lifelinePerimeter;whiteSpace=wrap;html=1;container=1;dropTarget=0;collapsible=0;recursiveResize=0;outlineConnect=0;portConstraint=eastwest;newEdgeStyle={&quot;curved&quot;:0,&quot;rounded&quot;:0};" parent="1" vertex="1">
          <mxGeometry x="210" y="80" width="110" height="800" as="geometry" />
        </mxCell>
        <mxCell id="kPx4DS-OzrlaK1hpZoPS-20" value="" style="html=1;points=[[0,0,0,0,5],[0,1,0,0,-5],[1,0,0,0,5],[1,1,0,0,-5]];perimeter=orthogonalPerimeter;outlineConnect=0;targetShapes=umlLifeline;portConstraint=eastwest;newEdgeStyle={&quot;curved&quot;:0,&quot;rounded&quot;:0};" parent="kPx4DS-OzrlaK1hpZoPS-9" vertex="1">
          <mxGeometry x="50" y="120" width="10" height="580" as="geometry" />
        </mxCell>
        <mxCell id="kPx4DS-OzrlaK1hpZoPS-12" value=":Application" style="shape=umlLifeline;perimeter=lifelinePerimeter;whiteSpace=wrap;html=1;container=1;dropTarget=0;collapsible=0;recursiveResize=0;outlineConnect=0;portConstraint=eastwest;newEdgeStyle={&quot;curved&quot;:0,&quot;rounded&quot;:0};" parent="1" vertex="1">
          <mxGeometry x="370" y="80" width="110" height="800" as="geometry" />
        </mxCell>
        <mxCell id="kPx4DS-OzrlaK1hpZoPS-26" value="" style="html=1;points=[[0,0,0,0,5],[0,1,0,0,-5],[1,0,0,0,5],[1,1,0,0,-5]];perimeter=orthogonalPerimeter;outlineConnect=0;targetShapes=umlLifeline;portConstraint=eastwest;newEdgeStyle={&quot;curved&quot;:0,&quot;rounded&quot;:0};" parent="kPx4DS-OzrlaK1hpZoPS-12" vertex="1">
          <mxGeometry x="50" y="140" width="10" height="560" as="geometry" />
        </mxCell>
        <mxCell id="kPx4DS-OzrlaK1hpZoPS-24" value="Database" style="shape=umlLifeline;perimeter=lifelinePerimeter;whiteSpace=wrap;html=1;container=1;dropTarget=0;collapsible=0;recursiveResize=0;outlineConnect=0;portConstraint=eastwest;newEdgeStyle={&quot;edgeStyle&quot;:&quot;elbowEdgeStyle&quot;,&quot;elbow&quot;:&quot;vertical&quot;,&quot;curved&quot;:0,&quot;rounded&quot;:0};" parent="1" vertex="1">
          <mxGeometry x="545" y="80" width="110" height="800" as="geometry" />
        </mxCell>
        <mxCell id="kPx4DS-OzrlaK1hpZoPS-25" value="" style="html=1;points=[[0,0,0,0,5],[0,1,0,0,-5],[1,0,0,0,5],[1,1,0,0,-5]];perimeter=orthogonalPerimeter;outlineConnect=0;targetShapes=umlLifeline;portConstraint=eastwest;newEdgeStyle={&quot;curved&quot;:0,&quot;rounded&quot;:0};direction=west;" parent="kPx4DS-OzrlaK1hpZoPS-24" vertex="1">
          <mxGeometry x="50" y="160" width="10" height="60" as="geometry" />
        </mxCell>
        <mxCell id="kPx4DS-OzrlaK1hpZoPS-52" value="" style="html=1;points=[[0,0,0,0,5],[0,1,0,0,-5],[1,0,0,0,5],[1,1,0,0,-5]];perimeter=orthogonalPerimeter;outlineConnect=0;targetShapes=umlLifeline;portConstraint=eastwest;newEdgeStyle={&quot;curved&quot;:0,&quot;rounded&quot;:0};" parent="kPx4DS-OzrlaK1hpZoPS-24" vertex="1">
          <mxGeometry x="50" y="620" width="10" height="40" as="geometry" />
        </mxCell>
        <mxCell id="kPx4DS-OzrlaK1hpZoPS-28" value="Thông tin vé và y/c xác nhận" style="html=1;verticalAlign=bottom;endArrow=open;dashed=1;endSize=8;curved=0;rounded=0;" parent="1" edge="1">
          <mxGeometry x="0.0667" y="-10" relative="1" as="geometry">
            <mxPoint x="260" y="330" as="sourcePoint" />
            <mxPoint x="110" y="330" as="targetPoint" />
            <Array as="points">
              <mxPoint x="180" y="330" />
            </Array>
            <mxPoint as="offset" />
          </mxGeometry>
        </mxCell>
        <mxCell id="kPx4DS-OzrlaK1hpZoPS-31" value="alt" style="shape=umlFrame;whiteSpace=wrap;html=1;pointerEvents=0;" parent="1" vertex="1">
          <mxGeometry x="190" y="420" width="630" height="420" as="geometry" />
        </mxCell>
        <mxCell id="kPx4DS-OzrlaK1hpZoPS-32" value="Thông tin hoàn tác thành công" style="html=1;verticalAlign=bottom;endArrow=open;dashed=1;endSize=8;curved=0;rounded=0;" parent="1" edge="1">
          <mxGeometry x="0.0667" y="-4" relative="1" as="geometry">
            <mxPoint x="420" y="464.5" as="sourcePoint" />
            <mxPoint x="270" y="464.5" as="targetPoint" />
            <Array as="points" />
            <mxPoint as="offset" />
          </mxGeometry>
        </mxCell>
        <mxCell id="kPx4DS-OzrlaK1hpZoPS-33" value="[ Xác nhận không hủy ]" style="text;html=1;align=center;verticalAlign=middle;resizable=0;points=[];autosize=1;strokeColor=none;fillColor=none;" parent="1" vertex="1">
          <mxGeometry x="430" y="420" width="150" height="30" as="geometry" />
        </mxCell>
        <mxCell id="kPx4DS-OzrlaK1hpZoPS-36" value="&amp;nbsp;[Xác nhận hủy]" style="text;html=1;align=center;verticalAlign=middle;resizable=0;points=[];autosize=1;strokeColor=none;fillColor=none;" parent="1" vertex="1">
          <mxGeometry x="425" y="480" width="110" height="30" as="geometry" />
        </mxCell>
        <mxCell id="kPx4DS-OzrlaK1hpZoPS-37" value="alt" style="shape=umlFrame;whiteSpace=wrap;html=1;pointerEvents=0;width=40;height=30;" parent="1" vertex="1">
          <mxGeometry x="200" y="550" width="600" height="280" as="geometry" />
        </mxCell>
        <mxCell id="kPx4DS-OzrlaK1hpZoPS-39" value="Không thể hủy" style="html=1;verticalAlign=bottom;endArrow=open;dashed=1;endSize=8;curved=0;rounded=0;" parent="1" edge="1">
          <mxGeometry x="0.0667" y="-4" relative="1" as="geometry">
            <mxPoint x="420" y="590" as="sourcePoint" />
            <mxPoint x="270" y="590" as="targetPoint" />
            <Array as="points" />
            <mxPoint as="offset" />
          </mxGeometry>
        </mxCell>
        <mxCell id="kPx4DS-OzrlaK1hpZoPS-40" value="[Không hủy được ]" style="text;html=1;align=center;verticalAlign=middle;resizable=0;points=[];autosize=1;strokeColor=none;fillColor=none;" parent="1" vertex="1">
          <mxGeometry x="430" y="550" width="120" height="30" as="geometry" />
        </mxCell>
        <mxCell id="kPx4DS-OzrlaK1hpZoPS-42" value="" style="endArrow=none;dashed=1;html=1;rounded=0;exitX=0.007;exitY=0.233;exitDx=0;exitDy=0;exitPerimeter=0;entryX=1;entryY=0.116;entryDx=0;entryDy=0;entryPerimeter=0;" parent="1" edge="1">
          <mxGeometry width="50" height="50" relative="1" as="geometry">
            <mxPoint x="190.00000000000009" y="485.2599999999999" as="sourcePoint" />
            <mxPoint x="820" y="482.72" as="targetPoint" />
          </mxGeometry>
        </mxCell>
        <mxCell id="kPx4DS-OzrlaK1hpZoPS-43" value="" style="endArrow=none;dashed=1;html=1;rounded=0;exitX=0;exitY=0.283;exitDx=0;exitDy=0;exitPerimeter=0;entryX=0.999;entryY=0.279;entryDx=0;entryDy=0;entryPerimeter=0;" parent="1" edge="1">
          <mxGeometry width="50" height="50" relative="1" as="geometry">
            <mxPoint x="200" y="603.24" as="sourcePoint" />
            <mxPoint x="799.4000000000001" y="602.1200000000001" as="targetPoint" />
          </mxGeometry>
        </mxCell>
        <mxCell id="kPx4DS-OzrlaK1hpZoPS-44" value="[Có thể hủy]" style="text;html=1;align=center;verticalAlign=middle;resizable=0;points=[];autosize=1;strokeColor=none;fillColor=none;" parent="1" vertex="1">
          <mxGeometry x="430" y="600" width="90" height="30" as="geometry" />
        </mxCell>
        <mxCell id="kPx4DS-OzrlaK1hpZoPS-45" value="VN Pay" style="shape=umlLifeline;perimeter=lifelinePerimeter;whiteSpace=wrap;html=1;container=1;dropTarget=0;collapsible=0;recursiveResize=0;outlineConnect=0;portConstraint=eastwest;newEdgeStyle={&quot;curved&quot;:0,&quot;rounded&quot;:0};" parent="1" vertex="1">
          <mxGeometry x="720" y="80" width="100" height="810" as="geometry" />
        </mxCell>
        <mxCell id="kPx4DS-OzrlaK1hpZoPS-47" value="" style="html=1;points=[[0,0,0,0,5],[0,1,0,0,-5],[1,0,0,0,5],[1,1,0,0,-5]];perimeter=orthogonalPerimeter;outlineConnect=0;targetShapes=umlLifeline;portConstraint=eastwest;newEdgeStyle={&quot;curved&quot;:0,&quot;rounded&quot;:0};" parent="kPx4DS-OzrlaK1hpZoPS-45" vertex="1">
          <mxGeometry x="45" y="560" width="10" height="50" as="geometry" />
        </mxCell>
        <mxCell id="kPx4DS-OzrlaK1hpZoPS-46" value="Gửi yêu cầu hoàn tiền" style="html=1;verticalAlign=bottom;endArrow=block;curved=0;rounded=0;" parent="1" edge="1">
          <mxGeometry width="80" relative="1" as="geometry">
            <mxPoint x="430" y="650" as="sourcePoint" />
            <mxPoint x="765" y="650" as="targetPoint" />
            <Array as="points">
              <mxPoint x="485" y="650" />
            </Array>
          </mxGeometry>
        </mxCell>
        <mxCell id="kPx4DS-OzrlaK1hpZoPS-49" value="Phản hồi kết quả" style="html=1;verticalAlign=bottom;endArrow=open;dashed=1;endSize=8;curved=0;rounded=0;" parent="1" edge="1">
          <mxGeometry relative="1" as="geometry">
            <mxPoint x="765" y="680" as="sourcePoint" />
            <mxPoint x="430" y="680" as="targetPoint" />
            <Array as="points">
              <mxPoint x="580" y="680" />
            </Array>
          </mxGeometry>
        </mxCell>
        <mxCell id="kPx4DS-OzrlaK1hpZoPS-51" value="Cập nhật trạng thái vé" style="html=1;verticalAlign=bottom;endArrow=block;curved=0;rounded=0;" parent="1" target="kPx4DS-OzrlaK1hpZoPS-52" edge="1">
          <mxGeometry width="80" relative="1" as="geometry">
            <mxPoint x="430" y="710" as="sourcePoint" />
            <mxPoint x="580" y="710" as="targetPoint" />
            <Array as="points">
              <mxPoint x="485" y="710" />
            </Array>
          </mxGeometry>
        </mxCell>
        <mxCell id="kPx4DS-OzrlaK1hpZoPS-53" value="Kết quả hủy vé" style="html=1;verticalAlign=bottom;endArrow=open;dashed=1;endSize=8;curved=0;rounded=0;" parent="1" edge="1">
          <mxGeometry x="0.0667" y="-4" relative="1" as="geometry">
            <mxPoint x="420" y="750" as="sourcePoint" />
            <mxPoint x="270" y="750" as="targetPoint" />
            <Array as="points">
              <mxPoint x="340" y="750" />
            </Array>
            <mxPoint as="offset" />
          </mxGeometry>
        </mxCell>
      </root>
    </mxGraphModel>
  </diagram>
</mxfile>
